<svg width="100" height="153" viewBox="0 0 100 153" fill="none" xmlns="http://www.w3.org/2000/svg">
<path fill-rule="evenodd" clip-rule="evenodd" d="M32.1265 109.463C32.1265 114.853 27.7566 119.223 22.366 119.223L2.92158 119.223L2.92158 93.9124H32.1265L32.1265 109.463ZM36.0196 93.9124H32.1265V93.9121L2.92158 93.9121V93.9124H2.92046V148.428H2.92158V148.428H32.1265V148.428H36.0196V148.428H67.1716V123.117H67.1713V119.223H67.1716V93.9121L36.0196 93.9121V93.9124ZM36.0196 93.9124H67.1713V119.223L45.7802 119.223C40.3896 119.223 36.0196 114.853 36.0196 109.463V93.9124ZM67.1713 123.117H45.7802C40.3896 123.117 36.0196 127.487 36.0196 132.878V148.428H67.1713V123.117ZM32.1265 148.428V132.878C32.1265 127.487 27.7566 123.117 22.366 123.117H2.92158V148.428H32.1265Z" fill="black" fill-opacity="0.2"/>
<path fill-rule="evenodd" clip-rule="evenodd" d="M64.8851 41.3927C57.2448 41.3927 51.0512 35.1991 51.0512 27.5589L51.0512 5.51946H95.2035V41.3927L64.8851 41.3927ZM4.13996 82.7855V82.786H95.2041V5.51946H95.2035V5.51898L51.0512 5.51898V5.51946H45.5317V5.51898L4.1389 5.51898L4.1389 41.3927H4.13996V46.9117H4.1389V82.7855H4.13996ZM4.13996 82.7855V46.9117H31.6979C39.3381 46.9117 45.5317 53.1054 45.5317 60.7456V82.7855H4.13996ZM4.13996 41.3927L31.6979 41.3927C39.3381 41.3927 45.5317 35.1991 45.5317 27.5589L45.5317 5.51946H4.13996V41.3927ZM51.0512 60.7456C51.0512 53.1054 57.2448 46.9117 64.8851 46.9117H95.2036V82.7855H51.0512V60.7456Z" fill="black" fill-opacity="0.2"/>
</svg>
