<svg width="134" height="192" viewBox="0 0 134 192" fill="none" xmlns="http://www.w3.org/2000/svg">
<path d="M67.1509 97.6398C61.685 97.6398 57.0389 96.3826 53.2128 93.8683C49.4959 91.3539 46.6536 88.0197 44.6859 83.8656C42.8275 79.7115 41.8982 75.2294 41.8982 70.4194C41.8982 65.6093 42.8275 61.1273 44.6859 56.9731C46.6536 52.819 49.4959 49.4848 53.2128 46.9705C57.0389 44.4561 61.685 43.199 67.1509 43.199C72.7262 43.199 77.3722 44.4561 81.0891 46.9705C84.9152 49.4848 87.7575 52.819 89.616 56.9731C91.5837 61.1273 92.5676 65.6093 92.5676 70.4194C92.5676 75.2294 91.5837 79.7115 89.616 83.8656C87.7575 88.0197 84.9152 91.3539 81.0891 93.8683C77.3722 96.3826 72.7262 97.6398 67.1509 97.6398ZM1.88752 38.9355C-3.68774 38.9355 -8.3338 37.6784 -12.0506 35.164C-15.7675 32.6497 -18.6098 29.3155 -20.5775 25.1613C-22.5453 20.8979 -23.5291 16.4158 -23.5291 11.7151C-23.5291 6.79576 -22.5453 2.31368 -20.5775 -1.73112C-18.6098 -5.88523 -15.7675 -9.21946 -12.0506 -11.7338C-8.3338 -14.2481 -3.68774 -15.5053 1.88752 -15.5053C7.46278 -15.5053 12.1088 -14.2481 15.8257 -11.7338C19.5425 -9.21946 22.3302 -5.88523 24.1886 -1.73112C26.1563 2.31368 27.1402 6.79576 27.1402 11.7151C27.1402 16.4158 26.1563 20.8979 24.1886 25.1613C22.3302 29.3155 19.5425 32.6497 15.8257 35.164C12.1088 37.6784 7.46278 38.9355 1.88752 38.9355ZM1.88752 29.9167C7.5721 29.9167 11.6169 28.3862 14.0219 25.3253C16.4269 22.2644 17.6294 17.7277 17.6294 11.7151C17.6294 5.59325 16.4269 1.00185 14.0219 -2.05908C11.6169 -5.12001 7.5721 -6.65047 1.88752 -6.65047C-3.79706 -6.65047 -7.84186 -5.12001 -10.2469 -2.05908C-12.5426 1.00185 -13.6904 5.59325 -13.6904 11.7151C-13.6904 17.7277 -12.5426 22.2644 -10.2469 25.3253C-7.84186 28.3862 -3.79706 29.9167 1.88752 29.9167ZM67.1509 88.785C72.8355 88.785 76.8803 87.2545 79.2853 84.1936C81.6903 81.0233 82.8928 76.4319 82.8928 70.4194C82.8928 64.2975 81.6903 59.7061 79.2853 56.6452C76.8803 53.5843 72.8355 52.0538 67.1509 52.0538C61.5757 52.0538 57.5855 53.5843 55.1805 56.6452C52.7755 59.7061 51.573 64.2975 51.573 70.4194C51.573 76.4319 52.7755 81.0233 55.1805 84.1936C57.5855 87.2545 61.5757 88.785 67.1509 88.785ZM-3.68775 96H-15.4942L72.8902 -13.8655H84.6966L-3.68775 96Z" fill="black" fill-opacity="0.2"/>
<path d="M116.21 207.922C113.135 207.922 110.522 207.215 108.37 205.801C106.279 204.387 104.68 202.511 103.573 200.174C102.528 197.838 102.005 195.317 102.005 192.611C102.005 189.905 102.528 187.384 103.573 185.047C104.68 182.711 106.279 180.835 108.37 179.421C110.522 178.007 113.135 177.299 116.21 177.299C119.346 177.299 121.959 178.007 124.05 179.421C126.202 180.835 127.801 182.711 128.846 185.047C129.953 187.384 130.507 189.905 130.507 192.611C130.507 195.317 129.953 197.838 128.846 200.174C127.801 202.511 126.202 204.387 124.05 205.801C121.959 207.215 119.346 207.922 116.21 207.922ZM79.4992 174.901C76.3631 174.901 73.7497 174.194 71.659 172.78C69.5683 171.365 67.9695 169.49 66.8626 167.153C65.7558 164.755 65.2024 162.234 65.2024 159.59C65.2024 156.823 65.7558 154.301 66.8626 152.026C67.9695 149.69 69.5683 147.814 71.659 146.4C73.7497 144.985 76.3631 144.278 79.4992 144.278C82.6353 144.278 85.2487 144.985 87.3394 146.4C89.4302 147.814 90.9982 149.69 92.0436 152.026C93.1504 154.301 93.7039 156.823 93.7039 159.59C93.7039 162.234 93.1504 164.755 92.0436 167.153C90.9982 169.49 89.4302 171.365 87.3394 172.78C85.2487 174.194 82.6353 174.901 79.4992 174.901ZM79.4992 169.828C82.6968 169.828 84.972 168.967 86.3248 167.245C87.6777 165.524 88.3541 162.972 88.3541 159.59C88.3541 156.146 87.6777 153.564 86.3248 151.842C84.972 150.12 82.6968 149.259 79.4992 149.259C76.3017 149.259 74.0265 150.12 72.6736 151.842C71.3823 153.564 70.7366 156.146 70.7366 159.59C70.7366 162.972 71.3823 165.524 72.6736 167.245C74.0265 168.967 76.3017 169.828 79.4992 169.828ZM116.21 202.942C119.407 202.942 121.683 202.081 123.035 200.359C124.388 198.576 125.065 195.993 125.065 192.611C125.065 189.167 124.388 186.585 123.035 184.863C121.683 183.141 119.407 182.28 116.21 182.28C113.074 182.28 110.829 183.141 109.477 184.863C108.124 186.585 107.447 189.167 107.447 192.611C107.447 195.993 108.124 198.576 109.477 200.359C110.829 202.081 113.074 202.942 116.21 202.942ZM76.3631 207H69.722L119.438 145.201H126.079L76.3631 207Z" fill="black" fill-opacity="0.2"/>
</svg>
