<svg width="204" height="42" viewBox="0 0 204 42" fill="none" xmlns="http://www.w3.org/2000/svg">
<path d="M19.1878 0.883072V16.7376C19.1878 18.4536 17.7973 19.8455 16.0799 19.8455H0C0.817473 9.62782 8.96274 1.47666 19.1775 0.657715C19.1848 0.732834 19.1863 0.80648 19.1863 0.883072H19.1878Z" fill="#F4CE47"/>
<path d="M41.7604 19.8457H25.6804C23.9645 19.8457 22.5726 18.4538 22.5726 16.7378V0.883255C22.5726 0.806663 22.5755 0.731544 22.5814 0.657898C32.7961 1.47684 40.9429 9.62801 41.7589 19.8457H41.7604Z" fill="#F4CE47"/>
<path d="M19.1878 26.337V42.1931C19.1878 42.2682 19.1848 42.3418 19.1789 42.417C8.96274 41.5965 0.817473 33.4483 0 23.2307H16.0799C17.7973 23.2307 19.1878 24.6211 19.1878 26.337Z" fill="#F4CE47"/>
<path d="M41.7603 23.2304C40.9429 33.448 32.7976 41.5962 22.5829 42.4152C22.5755 42.3401 22.574 42.2664 22.574 42.1913V26.3353C22.574 24.6193 23.9659 23.2289 25.6819 23.2289H41.7618L41.7603 23.2304Z" fill="#F4CE47"/>
<path d="M62.2089 28.1H55.0343V14.2074H61.8775C62.8732 14.2074 63.7098 14.3282 64.3874 14.5697C65.0649 14.8113 65.576 15.1884 65.9222 15.6995C66.2668 16.2106 66.4406 16.8675 66.4406 17.6688C66.4406 18.47 66.2094 19.1726 65.7454 19.6911C65.2814 20.2096 64.5877 20.5233 63.6612 20.6352V20.8429C64.7806 20.9254 65.6173 21.2863 66.1711 21.9211C66.7234 22.5574 67.0003 23.3454 67.0003 24.2851C67.0003 25.0599 66.8236 25.733 66.4716 26.3075C66.1195 26.8819 65.5863 27.3238 64.8749 27.6346C64.162 27.9454 63.2738 28.1015 62.2104 28.1015L62.2089 28.1ZM58.1451 17.006V19.7014H61.6698C62.2502 19.7014 62.6714 19.6116 62.9351 19.4319C63.1972 19.2522 63.3283 18.8928 63.3283 18.3537C63.3283 17.7866 63.1928 17.4198 62.9233 17.2549C62.6537 17.0899 62.2354 17.006 61.6683 17.006H58.1436H58.1451ZM58.1451 22.2319V25.3015H62.1058C62.6729 25.3015 63.1074 25.2116 63.4123 25.0319C63.7157 24.8522 63.8689 24.4383 63.8689 23.7873C63.8689 23.1363 63.7201 22.6811 63.4226 22.5014C63.1251 22.3217 62.6861 22.2319 62.1058 22.2319H58.1451V22.2319Z" fill="white"/>
<path d="M71.2704 28.1H68.1595V14.2074H71.2704V28.1015V28.1Z" fill="white"/>
<path d="M78.4877 28.3077C77.1605 28.3077 76.0411 28.0205 75.1279 27.4475C74.2162 26.8745 73.521 26.0512 73.0437 24.9803C72.5665 23.9095 72.3279 22.634 72.3279 21.1537C72.3279 19.6734 72.5974 18.4406 73.1365 17.3697C73.6756 16.2989 74.4504 15.4697 75.4593 14.882C76.4683 14.2943 77.6775 14.0012 79.0886 14.0012C80.4997 14.0012 81.6323 14.2192 82.5721 14.6551C83.5118 15.0911 84.2232 15.7024 84.7078 16.4904C85.1909 17.2784 85.434 18.2255 85.434 19.3317V19.4348H82.1376V19.3523C82.1376 18.4671 81.9019 17.8558 81.432 17.517C80.9622 17.1783 80.1594 17.0089 79.0267 17.0089C78.2387 17.0089 77.5965 17.1267 77.0987 17.3609C76.6008 17.5966 76.2341 18.0149 75.9999 18.6158C75.7642 19.2168 75.6479 20.0637 75.6479 21.1566C75.6479 22.2495 75.7716 23.12 76.0205 23.7284C76.2694 24.3367 76.6627 24.7579 77.2018 24.9936C77.7409 25.2293 78.4464 25.3456 79.3169 25.3456C80.049 25.3456 80.647 25.2911 81.1109 25.1792C81.5734 25.0687 81.9196 24.861 82.1479 24.5576C82.3762 24.2542 82.4896 23.8182 82.4896 23.2511V22.3173H85.4752V22.6281L82.821 25.9878H82.469C82.3305 26.3472 82.1066 26.7066 81.7944 27.066C81.4836 27.4254 81.0579 27.7229 80.5188 27.9571C79.9797 28.1913 79.3022 28.3091 78.4862 28.3091L78.4877 28.3077ZM85.4752 23.31H78.6939V20.7177H85.4752V23.31ZM85.4752 28.1H82.5927V24.347L82.4896 24.0981V21.0918H85.4752V28.1015V28.1Z" fill="white"/>
<path d="M97.7506 28.1H90.576V14.2074H97.4192C98.4149 14.2074 99.2515 14.3282 99.9276 14.5697C100.605 14.8113 101.116 15.1884 101.462 15.6995C101.807 16.2106 101.981 16.8675 101.981 17.6688C101.981 18.47 101.75 19.1726 101.286 19.6911C100.822 20.2096 100.128 20.5233 99.2014 20.6352V20.8429C100.321 20.9254 101.157 21.2863 101.71 21.9211C102.262 22.5574 102.539 23.3454 102.539 24.2851C102.539 25.0599 102.362 25.733 102.01 26.3075C101.658 26.8819 101.125 27.3238 100.414 27.6346C99.7022 27.9454 98.8141 28.1015 97.7491 28.1015L97.7506 28.1ZM93.6868 17.006V19.7014H97.2115C97.7918 19.7014 98.2131 19.6116 98.4768 19.4319C98.7389 19.2522 98.8715 18.8928 98.8715 18.3537C98.8715 17.7866 98.736 17.4198 98.4664 17.2549C98.1969 17.0884 97.7786 17.006 97.2115 17.006H93.6868V17.006ZM93.6868 22.2319V25.3015H97.6475C98.2146 25.3015 98.6491 25.2116 98.954 25.0319C99.2574 24.8522 99.4106 24.4383 99.4106 23.7873C99.4106 23.1363 99.2618 22.6811 98.9643 22.5014C98.6668 22.3217 98.2278 22.2319 97.6475 22.2319H93.6868Z" fill="white"/>
<path d="M109.923 28.308C108.527 28.308 107.333 28.0149 106.345 27.4272C105.357 26.8395 104.592 26.0102 104.053 24.9394C103.514 23.8686 103.245 22.6063 103.245 21.1554C103.245 19.7046 103.514 18.4423 104.053 17.3715C104.592 16.3007 105.357 15.4714 106.345 14.8837C107.333 14.296 108.525 14.0029 109.923 14.0029C111.321 14.0029 112.495 14.2975 113.49 14.8837C114.486 15.4714 115.249 16.3007 115.782 17.3715C116.314 18.4423 116.58 19.7046 116.58 21.1554C116.58 22.6063 116.314 23.8686 115.782 24.9394C115.25 26.0102 114.486 26.8409 113.49 27.4272C112.495 28.0149 111.306 28.308 109.923 28.308ZM109.923 25.3017C110.711 25.3017 111.35 25.181 111.841 24.9394C112.331 24.6978 112.69 24.2751 112.919 23.6741C113.147 23.0732 113.261 22.2322 113.261 21.154C113.261 20.0758 113.147 19.2186 112.919 18.6235C112.69 18.0299 112.331 17.6116 111.841 17.3686C111.35 17.127 110.711 17.0062 109.923 17.0062C109.135 17.0062 108.475 17.127 107.984 17.3686C107.494 17.6101 107.135 18.0284 106.906 18.6235C106.678 19.2186 106.565 20.0611 106.565 21.154C106.565 22.2469 106.678 23.0717 106.906 23.6741C107.135 24.2751 107.494 24.6978 107.984 24.9394C108.475 25.181 109.122 25.3017 109.923 25.3017Z" fill="white"/>
<path d="M124.169 28.308C122.773 28.308 121.58 28.0149 120.591 27.4272C119.603 26.8395 118.838 26.0102 118.299 24.9394C117.76 23.8686 117.491 22.6063 117.491 21.1554C117.491 19.7046 117.76 18.4423 118.299 17.3715C118.838 16.3007 119.603 15.4714 120.591 14.8837C121.58 14.296 122.771 14.0029 124.169 14.0029C125.567 14.0029 126.741 14.2975 127.736 14.8837C128.732 15.4714 129.495 16.3007 130.028 17.3715C130.56 18.4423 130.827 19.7046 130.827 21.1554C130.827 22.6063 130.56 23.8686 130.028 24.9394C129.497 26.0102 128.732 26.8409 127.736 27.4272C126.741 28.0149 125.552 28.308 124.169 28.308ZM124.169 25.3017C124.957 25.3017 125.596 25.181 126.087 24.9394C126.577 24.6978 126.937 24.2751 127.165 23.6741C127.393 23.0732 127.507 22.2322 127.507 21.154C127.507 20.0758 127.393 19.2186 127.165 18.6235C126.937 18.0299 126.577 17.6116 126.087 17.3686C125.596 17.127 124.957 17.0062 124.169 17.0062C123.381 17.0062 122.721 17.127 122.231 17.3686C121.74 17.6101 121.381 18.0284 121.152 18.6235C120.924 19.2186 120.811 20.0611 120.811 21.154C120.811 22.2469 120.924 23.0717 121.152 23.6741C121.381 24.2751 121.74 24.6978 122.231 24.9394C122.721 25.181 123.368 25.3017 124.169 25.3017Z" fill="white"/>
<path d="M135.014 28.1H131.903V14.2074H135.014V28.1015V28.1ZM144.366 28.1H140.798L137.687 22.7504H133.416V19.7441H137.646L140.901 14.2074H144.426L140.237 21.0918L144.364 28.1015L144.366 28.1Z" fill="white"/>
<path d="M150.256 28.3078C148.901 28.3078 147.781 28.1281 146.896 27.7687C146.011 27.4093 145.354 26.8776 144.927 26.1721C144.498 25.4665 144.285 24.6034 144.285 23.5797V23.3102H147.334V23.5179C147.334 24.029 147.416 24.4266 147.583 24.7109C147.749 24.9952 148.049 25.1955 148.484 25.3119C148.92 25.4297 149.559 25.4886 150.402 25.4886C151.244 25.4886 151.875 25.3929 152.165 25.1985C152.455 25.0055 152.601 24.6726 152.601 24.2028C152.601 23.8846 152.555 23.6298 152.465 23.4354C152.375 23.2424 152.178 23.0804 151.875 22.9478C151.57 22.8167 151.094 22.7019 150.444 22.6061L147.998 22.1701C147.113 22.0184 146.391 21.7651 145.831 21.413C145.272 21.061 144.864 20.6177 144.607 20.0859C144.351 19.5542 144.224 18.9282 144.224 18.2094C144.224 17.4906 144.407 16.8131 144.774 16.1768C145.14 15.5405 145.734 15.0191 146.557 14.6111C147.379 14.2031 148.447 13.9998 149.761 13.9998C151.075 13.9998 152.163 14.2075 152.985 14.6214C153.807 15.0368 154.413 15.6068 154.8 16.3315C155.187 17.0576 155.38 17.8839 155.38 18.8089V18.9754H152.311V18.7471C152.311 18.2639 152.234 17.8839 152.082 17.607C151.931 17.3301 151.661 17.1298 151.274 17.0061C150.886 16.8823 150.347 16.819 149.656 16.819C148.771 16.819 148.16 16.9192 147.821 17.1195C147.482 17.3198 147.313 17.6409 147.313 18.0842C147.313 18.3744 147.368 18.6057 147.479 18.7795C147.59 18.9518 147.787 19.0873 148.07 19.1845C148.353 19.2817 148.765 19.3848 149.304 19.4953L151.772 19.9725C152.739 20.1522 153.51 20.4394 154.084 20.8327C154.657 21.2275 155.069 21.7003 155.318 22.2526C155.567 22.8064 155.691 23.4206 155.691 24.0982C155.691 24.8317 155.511 25.5181 155.152 26.1618C154.793 26.8039 154.218 27.3224 153.432 27.7172C152.644 28.1119 151.586 28.3078 150.259 28.3078H150.256Z" fill="white"/>
<path d="M159.628 28.1H156.517V14.2074H159.628V28.1015V28.1ZM167.259 22.5014H157.389V19.722H167.259V22.5014ZM168.794 28.1H165.683V14.2074H168.794V28.1015V28.1Z" fill="white"/>
<path d="M173.502 28.1001H170.391V14.2075H173.502V28.1016V28.1001ZM180.987 17.0061H171.261V14.2061H180.987V17.0061ZM180.676 22.5016H171.261V19.7222H180.676V22.5016ZM180.987 28.1001H171.261V25.3001H180.987V28.1001Z" fill="white"/>
<path d="M185.32 28.1H182.21V14.2074H185.32V28.1015V28.1ZM192.495 28.1H183.08V25.3H192.495V28.1Z" fill="white"/>
<path d="M196.358 28.1001H193.248V14.2075H196.358V28.1016V28.1001ZM203.679 17.0061H194.12V14.2061H203.679V17.0061ZM203.368 22.9582H194.12V20.1788H203.368V22.9582Z" fill="white"/>
</svg>
